HIERARCHY
ROOT Hips
{
    OFFSET 0.0 0.0 0.0
    CHANNELS 6 Xposition Yposition Zposition Zrotation Xrotation Yrotation
    JOINT LeftHipJoint
    {
        OFFSET 0.1 0.0 0.0
        CHANNELS 3 Zrotation Xrotation Yrotation
        JOINT LeftUpLeg
        {
            OFFSET 119.77499374707591 0.0 0.0
            CHANNELS 3 Zrotation Xrotation Yrotation
            JOINT LeftLeg
            {
                OFFSET 0.0 0.0 -410.6360788006871
                CHANNELS 3 Zrotation Xrotation Yrotation
                JOINT LeftFoot
                {
                    OFFSET 0.0 0.0 -399.1556233972859
                    CHANNELS 3 Zrotation Xrotation Yrotation
                    End Site
                    {
                        OFFSET 0.0 -0.1 0.0
                    }
                }
            }
        }
    }
    JOINT LowerBack
    {
        OFFSET 0.0 0.0 0.1
        CHANNELS 3 Zrotation Xrotation Yrotation
        JOINT Spine
        {
            OFFSET 0.0 0.0 221.59436099745972
            CHANNELS 3 Zrotation Xrotation Yrotation
            JOINT Spine1
            {
                OFFSET 0.0 0.0 250.80503785956276
                CHANNELS 3 Zrotation Xrotation Yrotation
                JOINT LeftShoulder
                {
                    OFFSET 0.1 0.0 0.0
                    CHANNELS 3 Zrotation Xrotation Yrotation
                    JOINT LeftArm
                    {
                        OFFSET 137.1664149867392 0.0 0.0
                        CHANNELS 3 Zrotation Xrotation Yrotation
                        JOINT LeftForeArm
                        {
                            OFFSET 261.3603223669219 0.0 0.0
                            CHANNELS 3 Zrotation Xrotation Yrotation
                            JOINT LeftHand
                            {
                                OFFSET 241.05471793440273 0.0 0.0
                                CHANNELS 3 Zrotation Xrotation Yrotation
                                End Site
                                {
                                    OFFSET 0.1 0.0 0.0
                                }
                            }
                        }
                    }
                }
                JOINT Neck
                {
                    OFFSET 0.0 0.0 0.1
                    CHANNELS 3 Zrotation Xrotation Yrotation
                    JOINT Neck1
                    {
                        OFFSET 0.0 0.0 112.26540609539651
                        CHANNELS 3 Zrotation Xrotation Yrotation
                        End Site
                        {
                            OFFSET 0.0 0.0 115.87311860670181
                        }
                    }
                }
                JOINT RightShoulder
                {
                    OFFSET -0.1 0.0 0.0
                    CHANNELS 3 Zrotation Xrotation Yrotation
                    JOINT RightArm
                    {
                        OFFSET -137.1664149867392 0.0 0.0
                        CHANNELS 3 Zrotation Xrotation Yrotation
                        JOINT RightForeArm
                        {
                            OFFSET -261.3603223669219 0.0 0.0
                            CHANNELS 3 Zrotation Xrotation Yrotation
                            JOINT RightHand
                            {
                                OFFSET -241.05471793440273 0.0 0.0
                                CHANNELS 3 Zrotation Xrotation Yrotation
                                End Site
                                {
                                    OFFSET -0.1 0.0 0.0
                                }
                            }
                        }
                    }
                }
            }
        }
    }
    JOINT RightHipJoint
    {
        OFFSET -0.1 0.0 0.0
        CHANNELS 3 Zrotation Xrotation Yrotation
        JOINT RightUpLeg
        {
            OFFSET -119.77499374707591 0.0 0.0
            CHANNELS 3 Zrotation Xrotation Yrotation
            JOINT RightLeg
            {
                OFFSET 0.0 0.0 -410.6360788006871
                CHANNELS 3 Zrotation Xrotation Yrotation
                JOINT RightFoot
                {
                    OFFSET 0.0 0.0 -399.1556233972859
                    CHANNELS 3 Zrotation Xrotation Yrotation
                    End Site
                    {
                        OFFSET 0.0 -0.1 0.0
                    }
                }
            }
        }
    }
}
MOTION
Frames: 5
Frame Time: 0.03333333333333333
0.0 0.0 823.5044974937188 28.43283157600127 4.955532414638614 4.054703252444634 0.0 0.0 -1.987846675914698e-16 -0.5278498883871732 -22.75342643654919 0.7256852443978494 1.0938892520545582 27.53403928247076 -1.0111250899302395 0.0 0.0 7.951386703658792e-16 0.0 0.0 -1.987846675914698e-16 0.06622756361266112 2.991294231274198 0.4438256860138328 1.6036161806950802 -1.4080468612496898e-15 -1.1731190401780394e-15 0.0 0.0 0.0 -21.14536137182376 13.968802572386974 80.73162936848435 -21.614343122786135 -1.9449680677313947e-15 3.827986015244636e-15 0.0 0.0 8.199867538148129e-16 0.0 0.0 0.0 -6.8368155413296705 5.031296602594852 -4.619898212493302 0.0 0.0 0.0 10.30265279481193 10.601263852450627 -79.3493104770365 42.574346203494144 -1.4163567827094383e-14 -1.308399038094577e-15 0.0 0.0 -2.3854160110976376e-15 0.0 0.0 -1.987846675914698e-16 -0.41930748656315703 -18.164241775172624 -1.9153357617439108 -0.34703519101786073 30.928222513369942 1.8353763973565904 0.0 0.0 -7.951386703658792e-16
0.0 0.0 823.5044974937188 28.257083111639126 5.121994650222905 4.111684686267414 0.0 0.0 0.0 -0.5564501610231345 -22.959068032052176 0.6335189335551364 1.0813114033112525 27.610829177215994 -1.0287769279468757 0.0 0.0 0.0 0.0 0.0 0.0 0.06855815768504604 2.9687336223363614 0.41064832164028303 1.4941605748080984 8.20989898064581e-16 1.9773101677107317e-15 0.0 0.0 7.951386703658792e-16 -21.8058117317322 14.236049920348645 80.98974921161395 -21.59568989993408 -1.5526075624353415e-16 -1.1918715677802146e-14 -3.975693351829396e-16 -8.534701630995424e-33 2.459960261444439e-15 0.0 0.0 7.951386703658792e-16 -6.769265395126078 4.90351569462033 -4.775125939461407 0.0 0.0 7.951386703658792e-16 10.13484701993014 10.774570719097987 -79.11363570453496 43.533802625218655 -6.50244622366969e-15 9.445912246650248e-15 0.0 0.0 -1.5902773407317584e-15 0.0 0.0 0.0 -0.4428144907622665 -18.387532641813692 -1.9891522153246344 -0.35629075700858287 30.964835178706085 1.8237632809455158 0.0 0.0 -7.951386703658792e-16
0.0 0.0 823.5044974937188 28.045851157276772 5.286753963705167 4.148724567745128 0.0 0.0 3.975693351829396e-16 -0.5716815611620424 -23.114860304875194 0.49855809421942604 1.0175777114382945 27.417505420920907 -0.8928745567351489 0.0 0.0 -3.975693351829396e-16 0.0 0.0 3.975693351829396e-16 0.06791277814994548 2.8853175671934586 0.37844424539042654 1.4183256414382657 6.086100237486387e-16 9.864661866247726e-16 -3.1805546814635168e-15 2.758691436281349e-32 -9.93923337957349e-16 -22.67668635888236 14.378374470444172 81.29937647367699 -21.575419754507823 -1.3626301739523874e-15 6.089440745973393e-15 0.0 0.0 2.6463208873114415e-15 -3.1805546814635168e-15 2.758691436281349e-32 -9.93923337957349e-16 -6.680182850071074 5.089998609169509 -4.943913355974598 -3.1805546814635168e-15 2.758691436281349e-32 -9.93923337957349e-16 10.059435843019138 10.912360926733617 -78.73658434926351 44.72449664546355 -1.731289771307288e-15 4.1514445547695495e-15 6.361109362927035e-15 6.361109362927035e-15 -7.951386703658797e-16 0.0 0.0 3.975693351829396e-16 -0.4533925700791082 -18.47253991145176 -2.0761739850498806 -0.3883242603486638 30.728402042937045 1.8828867915326821 0.0 0.0 0.0
0.0 0.0 823.5044974937188 28.008273614800597 5.398052649450113 4.18974165914369 0.0 0.0 -5.963540027744094e-16 -0.5914872225119762 -23.235802454781297 0.4360475600820075 0.9990881658038878 27.225092070775958 -0.8650117056320268 0.0 0.0 3.975693351829396e-16 0.0 0.0 -5.963540027744094e-16 0.06843718852427426 2.827573259367032 0.39289386016214334 1.2742969073922747 -1.2058973032291158e-15 -1.179371216820738e-15 0.0 0.0 5.963540027744094e-16 -23.642253029653606 14.664526827944588 81.58371978291275 -21.61714010365947 6.6919906804417615e-16 7.348851672643045e-16 0.0 0.0 -2.795409388005044e-15 0.0 0.0 5.963540027744094e-16 -6.543280199244724 5.078835670380939 -5.140208848603302 0.0 0.0 5.963540027744094e-16 10.075615472031863 11.380208226508191 -78.30939461961161 46.59724847499995 1.3002742265325192e-15 2.714354503202774e-14 0.0 0.0 0.0 0.0 0.0 -5.963540027744094e-16 -0.4688616878774715 -18.575293458501847 -2.2110545870267693 -0.44256353988007874 30.643841008040905 2.0873483841254936 3.1805546814635168e-15 2.2069531490250793e-32 7.951386703658792e-16
0.0 0.0 823.5044974937188 28.00885063804803 5.457799505499619 4.256437215134308 0.0 0.0 3.975693351829396e-16 -0.6086184877445086 -23.301694145317796 0.34484037071693063 0.9615262661655175 26.96894304616529 -0.799290615913861 0.0 0.0 0.0 0.0 0.0 3.975693351829396e-16 0.06976461336856676 2.811155531773099 0.3081824572816623 1.076646713861766 -7.838976338029127e-16 1.2001259897734297e-15 0.0 0.0 -1.987846675914698e-16 -24.671588160669494 14.764961445877027 81.72788295298808 -21.967820015827673 -4.58766446654609e-15 2.5984364268989266e-14 -9.93923337957349e-17 -2.0555484041822945e-33 2.369885958942054e-15 0.0 0.0 -1.987846675914698e-16 -6.5059691315852355 5.356160134279251 -5.300650084897493 0.0 0.0 -1.987846675914698e-16 9.75342015498103 11.58041848996666 -77.5700268138085 49.05128166127079 -2.893591035778143e-15 1.3202495974034093e-15 0.0 0.0 0.0 0.0 0.0 3.975693351829396e-16 -0.4818600262546744 -18.622311296372324 -2.3333978676057074 -0.48758540017181495 30.374139424528185 2.2759245401234685 0.0 -3.975693351829396e-16 0.0
